<?xml version="1.0" encoding="UTF-8" standalone="no"?>
<svg
   xmlns:dc="http://purl.org/dc/elements/1.1/"
   xmlns:cc="http://creativecommons.org/ns#"
   xmlns:rdf="http://www.w3.org/1999/02/22-rdf-syntax-ns#"
   xmlns:svg="http://www.w3.org/2000/svg"
   xmlns="http://www.w3.org/2000/svg"
   xmlns:sodipodi="http://sodipodi.sourceforge.net/DTD/sodipodi-0.dtd"
   xmlns:inkscape="http://www.inkscape.org/namespaces/inkscape"
   id="svg7384"
   height="16"
   width="16"
   version="1.1"
   sodipodi:docname="egg-timer.svg"
   inkscape:version="0.92.5 (2060ec1f9f, 2020-04-08)">
  <sodipodi:namedview
     pagecolor="#ffffff"
     bordercolor="#666666"
     borderopacity="1"
     objecttolerance="10"
     gridtolerance="10"
     guidetolerance="10"
     inkscape:pageopacity="0"
     inkscape:pageshadow="2"
     inkscape:window-width="1561"
     inkscape:window-height="1011"
     id="namedview21"
     showgrid="true"
     inkscape:zoom="11.313709"
     inkscape:cx="-2.5893663"
     inkscape:cy="14.827152"
     inkscape:window-x="2279"
     inkscape:window-y="32"
     inkscape:window-maximized="0"
     inkscape:current-layer="g4190"
     inkscape:document-rotation="0">
    <inkscape:grid
       type="xygrid"
       id="grid877" />
  </sodipodi:namedview>
  <title
     id="title9167">Gnome Symbolic Icon Theme</title>
  <defs
     id="defs10">
    <clipPath
       id="clipPath6259-6-8-25-4">
      <rect
         style="color:#bebebe;fill:#bebebe"
         id="rect6261-4-9-24-2"
         y="221.5"
         x="26.999001"
         height="4.8734999"
         width="1.8763" />
    </clipPath>
    <clipPath
       id="clipPath6265-33-4">
      <rect
         style="color:#bebebe;fill:#bebebe"
         id="rect6267-6-5"
         y="221.33"
         x="26.966"
         height="5.2158999"
         width="2.8977001" />
    </clipPath>
    <clipPath
       id="clipPath6279-6-1">
      <rect
         style="color:#bebebe;fill:#bebebe"
         id="rect6281-3-1"
         y="220.75"
         x="26.85"
         height="6.375"
         width="3.825" />
    </clipPath>
    <clipPath
       id="clipPath4595"
       clipPathUnits="userSpaceOnUse">
      <path
         style="fill:#ff0000;fill-opacity:1;stroke:none;stroke-width:1;stroke-linecap:butt;stroke-linejoin:round;stroke-miterlimit:4;stroke-dasharray:none;stroke-opacity:1"
         d="m -14.282595,8.1440635 0,1.4185643 c 0,0.9634652 2.014718,1.7441142 4.4999998,1.7441142 2.4852812,0 4.5000002,-0.780649 4.5000002,-1.7441142 l 0,-1.4185643 c 0,0.5866082 -0.753237,1.1023152 -1.898438,1.4185643 -0.7357131,0.2031681 -1.6294525,0.3255484 -2.6015622,0.3255484 -0.9721098,0 -1.8678018,-0.1223803 -2.6035158,-0.3255484 -1.1452,-0.3162491 -1.896484,-0.8319561 -1.896484,-1.4185643 z"
         id="path4597" />
    </clipPath>
  </defs>
  <metadata
     id="metadata90">
    <rdf:RDF>
      <cc:Work
         rdf:about="">
        <dc:format>image/svg+xml</dc:format>
        <dc:type
           rdf:resource="http://purl.org/dc/dcmitype/StillImage" />
        <dc:title>Gnome Symbolic Icon Theme</dc:title>
      </cc:Work>
    </rdf:RDF>
  </metadata>
  <g
     transform="translate(17.716189,-0.98422722)"
     id="g4190">
    <g
       id="g875"
       style="opacity:1;fill:#cc0000;stroke-width:0.567455"
       transform="matrix(1.541293,0,0,2.0148899,3.1807555,-16.775635)" />
    <path
       style="fill:#dbdbdb;fill-opacity:1;stroke:none;stroke-width:0.11356223;stroke-miterlimit:4;stroke-dasharray:none"
       d="m -9.7142359,1.2869616 c -2.9471731,0 -5.4327131,4.0941258 -6.2304691,7.3945313 -2.49e-4,0.362138 -0.02363,0.07883 -0.0078,0.113281 -2.22e-4,0.539847 0.472694,1.028743 1.25,1.4238281 V 8.2986799 l 1.240234,0.40625 V 10.67368 c 0.262989,0.07645 0.509943,0.160578 0.802735,0.220703 V 8.8982899 l 1.289062,0.130859 v 2.0605471 c 0.316555,0.03354 0.63895,0.06384 0.972656,0.07813 V 9.0897009 h 1.4804691 v 2.0781251 c 0.3992301,-0.02241 0.7908208,-0.0556 1.1660158,-0.103516 l 0.011719,-3.6914059 1.9140625,-0.4863281 0.039063,3.761719 c 1.395632,-0.437211 2.3108569,-1.0954431 2.3105459,-1.8496101 -0.0065,-0.117559 -0.010814,-0.109624 -0.00781,-0.117187 -0.79777,-3.3004105 -3.283296,-7.3945313 -6.230469,-7.3945313 z m -6.4804691,8.9277344 c -0.01144,0.158469 -0.02344,0.318603 -0.02344,0.466797 0,3.313708 2.91104,6 6.5019531,6 3.590913,0 6.501953,-2.686292 6.501953,-6 0,-0.100445 -0.010335,-0.211123 -0.015625,-0.316406 a 6.4933581,2.4834056 0 0 1 -6.4746092,2.300781 6.4933581,2.4834056 0 0 1 -6.4902349,-2.451172 z m 6.4785161,3.070312 0.96875,1 0.9667969,1 h -1.9355469 -1.9355471 l 0.966797,-1 z"
       id="path851"
       inkscape:connector-curvature="0" />
  </g>
</svg>
